<svg width="1595" height="364" viewBox="0 0 1595 364" fill="none" xmlns="http://www.w3.org/2000/svg">
<path d="M1590.55 280.5C1575.55 333.5 1531.55 364 1471.05 364C1394.05 364 1341.55 308.5 1341.55 227C1341.55 148.5 1396.05 91.5 1471.05 91.5C1560.05 91.5 1594.05 161 1594.55 232.5V243H1394.05C1398.55 290.5 1429.05 319.5 1470.55 319.5C1501.55 319.5 1527.55 307.5 1536.55 280.5H1590.55ZM1394.55 203H1540.55C1537.05 164 1514.55 134.5 1470.55 134.5C1428.55 134.5 1400.55 162 1394.55 203Z" fill="black"/>
<path d="M1112.4 357V98.5H1166.4V145C1180.4 115.5 1203.9 92 1243.9 92C1311.4 92 1337.4 136 1337.4 194V357H1282.9V204C1282.9 162.5 1267.9 139 1231.9 139C1195.9 139 1167.4 170 1167.4 235.5V357H1112.4Z" fill="black"/>
<path d="M1090.29 55H1032.79V0H1090.29V55ZM1031.79 357V98.5H1086.79V357H1031.79Z" fill="black"/>
<path d="M954.605 0H1009.61V357H954.605V0Z" fill="black"/>
<path d="M942.449 280.5C927.449 333.5 883.449 364 822.949 364C745.949 364 693.449 308.5 693.449 227C693.449 148.5 747.949 91.5 822.949 91.5C911.949 91.5 945.949 161 946.449 232.5V243H745.949C750.449 290.5 780.949 319.5 822.449 319.5C853.449 319.5 879.449 307.5 888.449 280.5H942.449ZM746.449 203H892.449C888.949 164 866.449 134.5 822.449 134.5C780.449 134.5 752.449 162 746.449 203Z" fill="black"/>
<path d="M644.832 176C641.832 146 617.832 134.5 593.332 134.5C570.332 134.5 549.332 147.5 549.332 166.5C549.332 185 565.832 195.5 591.332 202C602.832 205 614.332 207.5 625.832 211C667.332 221.5 701.832 241.5 701.832 283C701.832 335.5 649.332 364 596.332 364C546.832 364 493.832 341 488.332 278H542.332C547.832 308 566.332 321 597.332 321C622.332 321 647.832 311.5 647.832 286C647.832 264.5 627.332 257.5 605.332 252C592.832 249 580.332 246 568.332 242.5C527.832 232 496.332 208.5 496.332 168.5C496.332 121 543.332 91.5 594.332 91.5C648.832 91.5 691.832 120 697.332 176H644.832Z" fill="black"/>
<path d="M269.406 177C275.906 137 309.406 91 376.906 91C464.906 91 484.406 145 484.406 197V299C484.406 319 485.906 342.5 488.906 357H432.406C431.406 346.5 430.906 336.5 430.906 325V313.5H430.406C422.406 334 400.906 363.5 347.906 363.5C288.406 363.5 256.906 326.5 256.906 286.5C256.906 214.5 345.406 209.5 383.406 203.5C416.906 198 430.406 190.5 430.406 169C430.406 148 410.906 134.5 377.906 134.5C349.406 134.5 327.906 151 321.906 177H269.406ZM311.406 285C311.406 306.5 329.906 321.5 360.406 321.5C396.406 321.5 431.406 299 431.406 237V208.5C425.906 223 412.906 236 366.406 245C330.406 251.5 311.406 262.5 311.406 285Z" fill="black"/>
<path d="M0 357V0H128.5C194.5 0 241.5 33 241.5 95C241.5 133.5 221 159 183.5 174.5V175C223 182.5 255.5 207.5 255.5 255.5C255.5 326 205 357 125.5 357H0ZM57.5 309.5H127.5C169.5 309.5 198.5 292 198.5 254C198.5 217 171 199.5 131.5 199.5H57.5V309.5ZM57.5 152.5H118.5C160.5 152.5 184.5 136 184.5 97.5C184.5 59.5 160.5 47.5 120 47.5H57.5V152.5Z" fill="black"/>
</svg>
